<?xml version="1.0" standalone="no"?><!DOCTYPE svg PUBLIC "-//W3C//DTD SVG 1.1//EN" "http://www.w3.org/Graphics/SVG/1.1/DTD/svg11.dtd"><svg width="100%" height="100%" viewBox="0 0 1874 318" version="1.1" xmlns="http://www.w3.org/2000/svg" xmlns:xlink="http://www.w3.org/1999/xlink" xml:space="preserve" style="fill-rule:evenodd;clip-rule:evenodd;stroke-linejoin:round;stroke-miterlimit:1.41421;"><g><g><path d="M68.174,197.37l3.082,-5.284l-64.137,-28.619l64.137,-28.473l-2.935,-5.724l-67.66,31.408l0,5.577l67.513,31.115Z" style="fill:#0dc954;fill-rule:nonzero;"/><path d="M106.334,181.666c0,-9.98 0.734,-66.046 0.881,-79.548l-6.899,0.88c0.294,13.356 0.734,69.128 1.028,78.668l4.99,0ZM103.839,205.882c3.229,0 4.843,-1.761 4.843,-4.99c0,-3.229 -1.614,-4.99 -4.843,-4.99c-3.229,0 -4.843,1.761 -4.843,4.99c0,3.229 1.614,4.99 4.843,4.99Z" style="fill:#0dc954;fill-rule:nonzero;"/><rect x="129.67" y="160.531" width="44.764" height="5.724" style="fill:#0dc954;fill-rule:nonzero;"/><rect x="194.982" y="160.531" width="44.764" height="5.724" style="fill:#0dc954;fill-rule:nonzero;"/></g><g><rect x="1668.33" y="156.211" width="44.764" height="5.724" style="fill:#1d80d8;fill-rule:nonzero;"/><rect x="1733.64" y="156.211" width="44.764" height="5.724" style="fill:#1d80d8;fill-rule:nonzero;"/><path d="M1873.8,161.935l0,-5.577l-67.66,-31.408l-2.935,5.724l64.137,28.473l-64.137,28.62l3.082,5.283l67.513,-31.115Z" style="fill:#1d80d8;fill-rule:nonzero;"/></g><g><path d="M317.427,224.245l-8.58,21.093c18.948,11.798 42.186,16.088 68.642,16.088c38.968,0 63.279,-15.015 63.279,-54.341c0,-38.969 -31.103,-46.834 -59.347,-54.699c-23.238,-6.435 -41.471,-12.513 -41.471,-32.533c0,-24.311 15.731,-28.601 36.824,-28.601c16.803,0 32.533,3.218 45.046,10.01l8.938,-20.735c-16.803,-9.295 -35.751,-12.155 -56.129,-12.155c-33.249,0 -60.419,15.372 -60.419,50.051c0,41.113 28.958,50.766 60.061,59.346c28.243,8.223 40.756,11.798 40.756,32.176c0,22.166 -14.658,28.601 -38.968,28.601c-21.451,0 -41.829,-4.648 -58.632,-14.301Z" style="fill:#0dc954;fill-rule:nonzero;"/><path d="M623.455,257.136l0,-105.822c0,-43.259 -8.938,-82.942 -62.207,-82.942c-30.388,0 -48.978,10.367 -60.061,29.673c-1.788,-9.295 -4.29,-18.591 -7.508,-27.528l-22.165,5.005c5.005,19.663 6.435,41.828 6.435,63.994l0,117.62l26.455,0l0,-129.418c11.798,-23.596 25.026,-37.181 51.839,-37.181c38.611,0 40.756,25.383 40.756,65.782l0,100.817l26.456,0Z" style="fill:#0dc954;fill-rule:nonzero;"/><path d="M704.609,257.136c-5.005,-19.663 -5.72,-41.113 -5.72,-62.206l0,-122.268l-26.456,3.575l0,117.263c0,24.31 1.073,45.761 6.793,63.636l25.383,0ZM685.661,39.056c10.725,0 17.161,-4.648 17.161,-15.373c0,-10.725 -6.436,-15.373 -17.161,-15.373c-10.725,0 -17.16,4.648 -17.16,15.373c0,10.725 6.435,15.373 17.16,15.373Z" style="fill:#0dc954;fill-rule:nonzero;"/><path d="M776.826,228.178l0,-100.46c11.798,-23.596 25.026,-37.181 51.839,-37.181c36.108,0 43.973,28.601 43.973,74.362c0,60.419 -18.948,74.362 -50.766,74.362c-15.015,0 -30.388,-2.86 -45.046,-11.083ZM776.826,312.192l0,-26.455c0,-11.44 0,-22.881 -1.073,-35.036c15.373,7.865 30.746,10.725 48.622,10.725c37.18,0 75.076,-16.088 75.076,-96.527c0,-63.994 -20.02,-96.527 -66.496,-96.527c-29.316,0 -48.264,10.367 -59.347,29.673c-1.787,-9.295 -4.29,-18.591 -7.507,-27.528l-22.166,5.005c5.005,19.663 6.435,41.828 6.435,63.994l0,172.676l26.456,0Z" style="fill:#0dc954;fill-rule:nonzero;"/><path d="M976.316,257.136c-5.005,-19.663 -5.72,-41.113 -5.72,-62.206l0,-194.485l-26.456,3.575l0,189.48c0,24.31 1.072,45.761 6.793,63.636l25.383,0Z" style="fill:#1d80d8;fill-rule:nonzero;"/><path d="M1056.4,257.136c-5.005,-19.663 -5.721,-41.113 -5.721,-62.206l0,-122.268l-26.455,3.575l0,117.263c0,24.31 1.072,45.761 6.793,63.636l25.383,0ZM1037.45,39.056c10.725,0 17.16,-4.648 17.16,-15.373c0,-10.725 -6.435,-15.373 -17.16,-15.373c-10.726,0 -17.161,4.648 -17.161,15.373c0,10.725 6.435,15.373 17.161,15.373Z" style="fill:#1d80d8;fill-rule:nonzero;"/><path d="M1223,249.986l-10.011,-20.736c-12.512,6.436 -26.098,8.581 -39.326,8.581c-37.18,0 -51.481,-17.518 -51.481,-72.932c0,-55.414 14.301,-72.932 51.481,-72.932c13.228,0 26.814,2.145 39.326,8.58l10.011,-20.735c-14.658,-8.223 -30.389,-11.44 -49.337,-11.44c-53.626,0 -78.294,29.673 -78.294,96.527c0,66.854 24.668,96.527 78.294,96.527c18.948,0 34.679,-3.217 49.337,-11.44Z" style="fill:#1d80d8;fill-rule:nonzero;"/><path d="M1294.14,257.136c-5.005,-19.663 -5.72,-41.113 -5.72,-62.206l0,-122.268l-26.456,3.575l0,117.263c0,24.31 1.073,45.761 6.793,63.636l25.383,0ZM1275.19,39.056c10.725,0 17.16,-4.648 17.16,-15.373c0,-10.725 -6.435,-15.373 -17.16,-15.373c-10.725,0 -17.161,4.648 -17.161,15.373c0,10.725 6.436,15.373 17.161,15.373Z" style="fill:#1d80d8;fill-rule:nonzero;"/><path d="M1385.66,262.499l17.876,-15.016c-22.881,-21.808 -23.239,-39.683 -23.239,-71.144l0,-81.154l38.611,0l2.503,-22.523l-41.114,0l0,-59.704l-26.455,3.575l0,56.129l-31.461,0l0,22.523l31.461,0l0,73.646c0,40.399 2.145,70.072 31.818,93.668Z" style="fill:#1d80d8;fill-rule:nonzero;"/><path d="M1466.46,317.555c34.678,-13.943 51.839,-43.258 63.994,-79.724l54.699,-162.309l-25.741,-5.005l-48.978,161.236l-48.622,-161.236l-28.243,5.362l61.134,178.04c-4.29,18.947 -14.3,32.175 -39.683,45.046l11.44,18.59Z" style="fill:#1d80d8;fill-rule:nonzero;"/></g></g></svg>