<?xml version="1.0" standalone="no"?><!DOCTYPE svg PUBLIC "-//W3C//DTD SVG 1.1//EN" "http://www.w3.org/Graphics/SVG/1.1/DTD/svg11.dtd"><svg width="100%" height="100%" viewBox="0 0 818 126" version="1.1" xmlns="http://www.w3.org/2000/svg" xmlns:xlink="http://www.w3.org/1999/xlink" xml:space="preserve" style="fill-rule:evenodd;clip-rule:evenodd;stroke-linejoin:round;stroke-miterlimit:1.41421;"><g><g><path d="M129.888,90.36l-3.456,8.496c7.632,4.752 16.992,6.48 27.648,6.48c15.696,0 25.488,-6.048 25.488,-21.888c0,-15.696 -12.528,-18.864 -23.904,-22.032c-9.36,-2.592 -16.704,-5.04 -16.704,-13.104c0,-9.792 6.336,-11.52 14.832,-11.52c6.768,0 13.104,1.296 18.144,4.032l3.6,-8.352c-6.768,-3.744 -14.4,-4.896 -22.608,-4.896c-13.392,0 -24.336,6.192 -24.336,20.16c0,16.56 11.664,20.448 24.192,23.904c11.376,3.312 16.416,4.752 16.416,12.96c0,8.928 -5.904,11.52 -15.696,11.52c-8.64,0 -16.848,-1.872 -23.616,-5.76Z" style="fill:#0dc954;fill-rule:nonzero;"/><path d="M253.152,103.608l0,-42.624c0,-17.424 -3.6,-33.408 -25.056,-33.408c-12.24,0 -19.728,4.176 -24.192,11.952c-0.72,-3.744 -1.728,-7.488 -3.024,-11.088l-8.928,2.016c2.016,7.92 2.592,16.848 2.592,25.776l0,47.376l10.656,0l0,-52.128c4.752,-9.504 10.08,-14.976 20.88,-14.976c15.552,0 16.416,10.224 16.416,26.496l0,40.608l10.656,0Z" style="fill:#0dc954;fill-rule:nonzero;"/><path d="M285.84,103.608c-2.016,-7.92 -2.304,-16.56 -2.304,-25.056l0,-49.248l-10.656,1.44l0,47.232c0,9.792 0.432,18.432 2.736,25.632l10.224,0ZM278.208,15.768c4.32,0 6.912,-1.872 6.912,-6.192c0,-4.32 -2.592,-6.192 -6.912,-6.192c-4.32,0 -6.912,1.872 -6.912,6.192c0,4.32 2.592,6.192 6.912,6.192Z" style="fill:#0dc954;fill-rule:nonzero;"/><path d="M314.928,91.944l0,-40.464c4.752,-9.504 10.08,-14.976 20.88,-14.976c14.544,0 17.712,11.52 17.712,29.952c0,24.336 -7.632,29.952 -20.448,29.952c-6.048,0 -12.24,-1.152 -18.144,-4.464ZM314.928,125.784l0,-10.656c0,-4.608 0,-9.216 -0.432,-14.112c6.192,3.168 12.384,4.32 19.584,4.32c14.976,0 30.24,-6.48 30.24,-38.88c0,-25.776 -8.064,-38.88 -26.784,-38.88c-11.808,0 -19.44,4.176 -23.904,11.952c-0.72,-3.744 -1.728,-7.488 -3.024,-11.088l-8.928,2.016c2.016,7.92 2.592,16.848 2.592,25.776l0,69.552l10.656,0Z" style="fill:#0dc954;fill-rule:nonzero;"/><path d="M485.424,103.608l0,-42.624c0,-17.424 -3.456,-33.408 -24.336,-33.408c-12.24,0 -20.016,4.032 -25.344,12.816c-3.312,-7.776 -9.504,-12.816 -21.312,-12.816c-11.952,0 -19.296,4.176 -23.616,11.952c-0.72,-3.744 -1.728,-7.488 -3.024,-11.088l-8.928,2.016c2.016,7.92 2.592,16.848 2.592,25.776l0,47.376l10.656,0l0,-52.128c4.608,-9.504 9.792,-14.976 20.16,-14.976c13.248,0 15.84,8.208 15.84,18.576l0,48.528l10.656,0l0,-52.128c4.608,-9.504 9.792,-14.976 20.16,-14.976c14.976,0 15.84,10.224 15.84,26.496l0,40.608l10.656,0Z" style="fill:#1d80d8;fill-rule:nonzero;"/><path d="M553.968,104.472l8.928,-2.016c-2.016,-7.92 -2.592,-16.848 -2.592,-25.776l0,-19.296c0,-21.888 -13.536,-29.808 -29.376,-29.808c-8.784,0 -16.848,1.728 -24.192,5.616l3.456,8.64c6.48,-3.168 13.536,-4.752 20.736,-4.752c10.368,0 18.72,5.04 18.72,21.456l0,1.728c-36.72,1.584 -48.096,8.64 -48.096,23.184c0,16.128 8.208,21.888 25.2,21.888c12.24,0 19.728,-4.176 24.192,-11.952c0.72,3.744 1.728,7.488 3.024,11.088ZM549.648,81.432c-4.752,9.504 -10.08,15.12 -20.88,15.12c-13.68,0 -16.704,-4.176 -16.704,-13.104c0,-9.648 12.672,-13.248 37.584,-14.4l0,12.384Z" style="fill:#1d80d8;fill-rule:nonzero;"/><path d="M624.96,105.048l9.792,-5.328l-31.968,-36.72l29.52,-30.096l-9.648,-4.464l-31.68,33.264l0,-61.488l-10.656,1.44l0,101.952l10.656,0l0,-39.312l33.984,40.752Z" style="fill:#1d80d8;fill-rule:nonzero;"/><path d="M698.4,98.712l-3.888,-8.208c-6.768,4.032 -13.392,5.76 -21.024,5.76c-13.248,0 -21.024,-5.328 -21.456,-22.752l49.536,-4.032l0,-1.296c0,-31.68 -10.8,-40.608 -29.52,-40.608c-16.128,0 -30.96,6.624 -30.96,38.88c0,30.816 12.816,38.88 32.4,38.88c8.928,0 17.424,-1.728 24.912,-6.624ZM651.744,65.16l0,-1.584c0,-20.016 7.776,-26.928 20.304,-26.928c11.664,0 18.72,6.048 19.008,24.768l-39.312,3.744Z" style="fill:#1d80d8;fill-rule:nonzero;"/></g><g><path d="M29.5,81.912l1.344,-2.304l-27.968,-12.48l27.968,-12.416l-1.28,-2.496l-29.504,13.696l0,2.432l29.44,13.568Z" style="fill:#0dc954;fill-rule:nonzero;"/><path d="M46.14,75.064c0,-4.352 0.32,-28.8 0.384,-34.688l-3.008,0.384c0.128,5.824 0.32,30.144 0.448,34.304l2.176,0ZM45.052,85.624c1.408,0 2.112,-0.768 2.112,-2.176c0,-1.408 -0.704,-2.176 -2.112,-2.176c-1.408,0 -2.112,0.768 -2.112,2.176c0,1.408 0.704,2.176 2.112,2.176Z" style="fill:#0dc954;fill-rule:nonzero;"/><rect x="56.316" y="65.848" width="19.52" height="2.496" style="fill:#0dc954;fill-rule:nonzero;"/><rect x="84.796" y="65.848" width="19.52" height="2.496" style="fill:#0dc954;fill-rule:nonzero;"/></g><g><rect x="728.34" y="61.784" width="19.52" height="2.496" style="fill:#1d80d8;fill-rule:nonzero;"/><rect x="756.82" y="61.784" width="19.52" height="2.496" style="fill:#1d80d8;fill-rule:nonzero;"/><path d="M817.94,64.28l0,-2.432l-29.504,-13.696l-1.28,2.496l27.968,12.416l-27.968,12.48l1.344,2.304l29.44,-13.568Z" style="fill:#1d80d8;fill-rule:nonzero;"/></g></g></svg>